<svg xmlns="http://www.w3.org/2000/svg" width="400" height="600" viewBox="0 0 400 600" fill="none">
  <!-- Background gradient -->
  <defs>
    <linearGradient id="grad1" x1="0%" y1="0%" x2="100%" y2="100%">
      <stop offset="0%" style="stop-color:#1A73E8;stop-opacity:1" />
      <stop offset="100%" style="stop-color:#003566;stop-opacity:1" />
    </linearGradient>
  </defs>
  <rect width="400" height="600" fill="url(#grad1)" />

  <!-- Abstract circular pattern -->
  <circle cx="200" cy="150" r="100" fill="rgba(255, 255, 255, 0.1)" />
  <circle cx="200" cy="150" r="80" fill="rgba(255, 255, 255, 0.2)" />
  <circle cx="200" cy="150" r="60" fill="rgba(255, 255, 255, 0.3)" />

  <!-- Abstract shapes -->
  <path d="M50 450 C150 400, 250 500, 350 450" stroke="#ffffff" stroke-width="4" fill="none" opacity="0.4" />
  <path d="M100 500 C200 450, 300 550, 400 500" stroke="#ffffff" stroke-width="4" fill="none" opacity="0.4" />
  
  <!-- Small decorative elements -->
  <circle cx="320" cy="300" r="10" fill="#ffffff" opacity="0.7" />
  <circle cx="50" cy="350" r="15" fill="#ffffff" opacity="0.5" />
  <circle cx="370" cy="100" r="7" fill="#ffffff" opacity="0.6" />
  
  <!-- Luxury/protection symbols -->
  <polygon points="150,550 200,500 250,550" fill="#ffffff" opacity="0.3" />
  <polygon points="160,540 200,500 240,540" fill="#ffffff" opacity="0.5" />
  
  <!-- Additional accents -->
  <rect x="150" y="500" width="100" height="5" fill="#ffffff" opacity="0.6" />
  <rect x="170" y="520" width="60" height="5" fill="#ffffff" opacity="0.4" />
</svg>